<svg width="72" height="65" viewBox="0 0 72 65" fill="none" xmlns="http://www.w3.org/2000/svg">
<path d="M15.9999 14.8057H47.9999V17.6946H15.9999V14.8057ZM15.9999 29.2501H32.1719V32.139H15.9999V29.2501ZM46.7559 22.0279H15.9999V24.9168H43.5579L46.7559 22.0279ZM25.5859 52.4912C26.1239 53.0481 26.8067 53.4756 27.5729 53.7353C28.3392 53.995 29.165 54.0787 29.9759 53.979H45.5819C45.9533 53.979 46.3093 53.8458 46.5719 53.6088C46.8344 53.3718 46.9819 53.0503 46.9819 52.7151C46.9819 52.3799 46.8344 52.0584 46.5719 51.8214C46.3093 51.5844 45.9533 51.4512 45.5819 51.4512H29.9759C28.1539 51.4223 28.4779 49.9941 28.7339 49.5518C29.0677 49.0326 29.3277 48.4775 29.5079 47.8997C29.6275 47.4348 29.5712 46.9471 29.3479 46.5144C29.1246 46.0818 28.7472 45.7291 28.2759 45.5127C27.5188 45.2048 26.6708 45.1294 25.8617 45.298C25.0526 45.4665 24.327 45.8699 23.7959 46.4462C23.1079 47.0872 22.1519 48.0676 21.2359 49.0209C21.8019 47.0186 22.5359 44.4493 23.2559 41.9432C23.4623 41.3721 23.4212 40.7517 23.141 40.2069C22.8608 39.6622 22.3623 39.2335 21.7459 39.0073C21.0634 38.7959 20.3174 38.8261 19.6585 39.0918C18.9996 39.3576 18.4769 39.8391 18.1959 40.4391C17.3319 41.9396 10.4919 52.2872 10.4239 52.3919C10.3297 52.5344 10.2674 52.6923 10.2407 52.8565C10.214 53.0208 10.2234 53.1881 10.2683 53.3491C10.3132 53.51 10.3929 53.6614 10.5026 53.7946C10.6124 53.9278 10.7501 54.0401 10.9079 54.1252C11.2267 54.2972 11.6081 54.3477 11.9682 54.2658C12.3283 54.1838 12.6375 53.9761 12.8279 53.6883C13.0839 53.3001 18.5439 45.0433 20.2659 42.2862C18.9699 46.8001 17.5419 51.8232 17.4579 52.2746C17.3634 52.6064 17.3918 52.9571 17.5388 53.273C17.6857 53.589 17.9433 53.8528 18.2719 54.0241C18.638 54.1881 19.0542 54.2373 19.4547 54.164C19.8552 54.0908 20.2173 53.8993 20.4839 53.6197C20.7359 53.4139 21.2079 52.9246 22.3979 51.6769C23.5067 50.4997 24.6423 49.3433 25.8039 48.2084C26.2399 47.7932 26.5039 47.9773 26.2479 48.3854C25.7472 48.9567 25.4224 49.6372 25.3065 50.3582C25.1906 51.0792 25.2877 51.815 25.5879 52.4912H25.5859Z" fill="#FFC700"/>
<path d="M56 39.1717V57.778H8V7.22244H56V16.2376L58.66 13.8362C59.0695 13.4716 59.5184 13.145 60 12.8612V5.41688C60 4.93802 59.7893 4.47877 59.4142 4.14016C59.0391 3.80156 58.5304 3.61133 58 3.61133H6C5.46957 3.61133 4.96086 3.80156 4.58579 4.14016C4.21071 4.47877 4 4.93802 4 5.41688V59.5836C4 60.0624 4.21071 60.5217 4.58579 60.8603C4.96086 61.1989 5.46957 61.3891 6 61.3891H58C58.5304 61.3891 59.0391 61.1989 59.4142 60.8603C59.7893 60.5217 60 60.0624 60 59.5836V38.6879C58.7733 39.2747 57.3546 39.4463 56 39.1717V39.1717Z" fill="#FFC700"/>
<path d="M68.256 21.4157L67.21 20.4714C67.7446 19.8336 68.0152 19.0471 67.975 18.2481C67.9349 17.4491 67.5864 16.688 66.99 16.0966C66.2158 15.4806 65.2034 15.1657 64.1733 15.2205C63.1431 15.2753 62.1787 15.6953 61.49 16.3891L36.44 39L34.766 44.6731C34.7395 44.7473 34.7362 44.8267 34.7567 44.9025C34.7771 44.9783 34.8203 45.0475 34.8816 45.1024C34.9429 45.1574 35.0198 45.196 35.1039 45.2139C35.188 45.2318 35.2759 45.2284 35.358 45.2039L41.62 43.6746L65.004 22.5641L65.992 23.4578C66.061 23.52 66.1157 23.5939 66.153 23.6752C66.1904 23.7566 66.2096 23.8437 66.2096 23.9318C66.2096 24.0198 66.1904 24.107 66.153 24.1883C66.1157 24.2696 66.061 24.3435 65.992 24.4057L56.158 33.2837C55.858 33.5547 55.6896 33.9222 55.6898 34.3053C55.69 34.6885 55.8587 35.0558 56.159 35.3266C56.4592 35.5974 56.8663 35.7495 57.2907 35.7493C57.7151 35.7491 58.122 35.5968 58.422 35.3257L68.256 26.4478C68.9951 25.7801 69.4103 24.8748 69.4103 23.9309C69.4103 22.9869 68.9951 22.0816 68.256 21.4139V21.4157Z" fill="#FFC700"/>
</svg>
