<svg width="34" height="31" viewBox="0 0 34 31" fill="none" xmlns="http://www.w3.org/2000/svg">
<path d="M28.5599 8.83491C24.4799 3.09991 16.1499 1.39491 9.68987 4.95991C3.39987 8.52491 1.35987 16.2749 5.43987 22.0099L5.77987 22.4749L4.41987 27.1249L9.51987 25.8849L10.0299 26.1949C12.2399 27.2799 14.6199 27.8999 16.9999 27.8999C19.5499 27.8999 22.0999 27.2799 24.3099 26.0399C30.5999 22.3199 32.4699 14.7249 28.5599 8.83491V8.83491ZM24.9899 20.7699C24.3099 21.6999 23.4599 22.3199 22.2699 22.4749C21.5899 22.4749 20.7399 22.7849 17.3399 21.5449C14.4499 20.3049 12.0699 18.2899 10.3699 15.9649C9.34987 14.8799 8.83987 13.4849 8.66987 12.0899C8.66987 10.8499 9.17987 9.76491 10.0299 8.98991C10.3699 8.67991 10.7099 8.52491 11.0499 8.52491H11.8999C12.2399 8.52491 12.5799 8.52491 12.7499 9.14491C13.0899 9.91991 13.9399 11.7799 13.9399 11.9349C14.1099 12.0899 14.1099 12.3999 13.9399 12.5549C14.1099 12.8649 13.9399 13.1749 13.7699 13.3299C13.5999 13.4849 13.4299 13.7949 13.2599 13.9499C12.9199 14.1049 12.7499 14.4149 12.9199 14.7249C13.5999 15.6549 14.4499 16.5849 15.2999 17.3599C16.3199 18.1349 17.3399 18.7549 18.5299 19.2199C18.8699 19.3749 19.2099 19.3749 19.3799 19.0649C19.5499 18.7549 20.3999 17.9799 20.7399 17.6699C21.0799 17.3599 21.2499 17.3599 21.5899 17.5149L24.3099 18.7549C24.6499 18.9099 24.9899 19.0649 25.1599 19.2199C25.3299 19.6849 25.3299 20.3049 24.9899 20.7699V20.7699Z" fill="#333333"/>
</svg>
