<svg width="37" height="34" viewBox="0 0 37 34" fill="none" xmlns="http://www.w3.org/2000/svg">
<path d="M35.8438 11.0941C35.8438 8.36187 34.4638 5.99834 32.4519 4.83119C29.7948 3.22097 24.5385 2.12447 18.4867 2.125C11.5209 2.12447 5.61186 3.57638 3.50517 5.59141C2.07547 6.88288 1.15625 8.86603 1.15625 11.0946C1.15625 12.4004 6.734 12.8307 10.4276 12.3893C10.3721 12.4785 10.3253 12.5715 10.2762 12.6634C9.10952 14.0707 8.16312 16.6271 7.56303 18.5799C5.24244 20.289 3.72775 23.6018 3.72775 23.6018V27.472C3.72668 28.04 3.97115 28.5851 4.40742 28.9875C4.84368 29.3899 5.43601 29.6166 6.05413 29.6177H6.14373V29.7303C6.14281 30.2983 6.38736 30.8433 6.82361 31.2455C7.25985 31.6478 7.85209 31.8744 8.47011 31.8755H11.6822C11.9882 31.875 12.2911 31.8192 12.5737 31.7111C12.8562 31.603 13.1128 31.4449 13.3288 31.2457C13.5449 31.0465 13.7161 30.8101 13.8327 30.5501C13.9493 30.2901 14.0091 30.0116 14.0085 29.7303V29.6172H22.9903V29.7298C22.9894 30.2976 23.2338 30.8426 23.67 31.2448C24.1061 31.6471 24.6982 31.8737 25.3161 31.875H28.5282C28.8342 31.8745 29.1371 31.8186 29.4197 31.7106C29.7022 31.6025 29.9588 31.4443 30.1748 31.2451C30.3909 31.046 30.5621 30.8096 30.6787 30.5496C30.7953 30.2896 30.8551 30.011 30.8545 29.7298V29.6172H30.9441C31.2503 29.6167 31.5533 29.5608 31.8359 29.4527C32.1185 29.3446 32.3751 29.1864 32.5912 28.9872C32.8073 28.7879 32.9786 28.5515 33.0952 28.2915C33.2119 28.0314 33.2716 27.7528 33.2711 27.4715V23.6013C33.2711 23.6013 31.7558 20.2879 29.4352 18.5794C28.8617 16.7131 27.972 14.2949 26.8759 12.8552C26.8056 12.6988 26.7261 12.5461 26.6377 12.3978C30.3331 12.8254 35.8438 12.3914 35.8438 11.0941ZM18.4867 6.6895C19.6857 6.6895 20.8414 6.74262 21.9618 6.8255C21.7843 7.13097 21.5947 7.412 21.4369 7.49966C20.8801 7.80831 19.7551 8.00063 18.5 8.00063C17.2449 8.00063 16.1193 7.80884 15.5625 7.49966C15.4047 7.41147 15.2145 7.12991 15.0376 6.82337C16.1849 6.73641 17.3355 6.69175 18.4867 6.6895M11.1116 5.35447C11.2601 5.14303 11.6862 5.05219 12.1412 5.05219C12.654 5.05219 13.2038 5.16694 13.4345 5.35447C14.0669 5.86553 14.545 7.55491 15.2637 7.95441C15.9568 8.33956 17.2281 8.53187 18.5 8.53187C19.7719 8.53187 21.042 8.33956 21.7358 7.95441C22.455 7.55491 22.9331 5.86553 23.565 5.35447C23.7962 5.16694 24.346 5.05219 24.8588 5.05219C25.3138 5.05219 25.7404 5.1425 25.889 5.35447C26.5885 6.35163 25.0802 8.65512 23.6765 9.86531C22.2029 9.15131 20.4153 8.74172 18.5833 8.74172C16.7159 8.74172 14.8815 9.16725 13.3703 9.90728C11.955 8.70931 10.4034 6.36331 11.1116 5.35447M26.6683 13.5405C26.9291 14.4373 26.8279 15.3324 26.4417 16.1622L24.6917 13.5378L23.9326 13.7732L25.6306 17.3676C24.2275 18.9098 21.6687 20.0021 18.43 20.0021C12.8413 20.0021 9.34828 16.7599 10.3773 13.541C11.207 10.948 14.8214 9.18903 18.5856 9.18903C22.3497 9.18903 25.9133 10.9475 26.6683 13.5405" fill="#333333"/>
<path d="M18.5518 11.5316C16.7938 11.5316 15.2415 12.423 15.0709 13.6168C14.8825 14.9258 16.4047 16.0855 18.4865 16.0855C20.5678 16.0855 22.1223 14.9252 21.972 13.6168C21.8356 12.423 20.3082 11.5316 18.5518 11.5316M17.543 10.8909C18.0945 11.2192 19.0172 11.2192 19.5786 10.8909C20.1243 10.5716 20.0977 10.0728 19.5462 9.77477C19.0086 9.48523 18.1518 9.48523 17.6066 9.77477C17.0452 10.0728 17.0059 10.5716 17.543 10.8909ZM22.3096 12.0421C23.1416 12.0421 23.7399 11.6421 23.6469 11.165C23.5584 10.706 22.8571 10.3469 22.0807 10.3469C21.302 10.3469 20.7007 10.7071 20.7354 11.165C20.7713 11.6421 21.4748 12.0421 22.3096 12.0421Z" fill="#333333"/>
<path d="M21.1199 16.2839C21.1731 16.9862 22.0397 17.5796 23.059 17.5796C24.073 17.5796 24.7818 16.9862 24.6454 16.2839C24.5141 15.6134 23.6544 15.0928 22.7219 15.0928C21.7859 15.0928 21.0696 15.614 21.1199 16.2839ZM19.7405 16.6956C19.0393 16.2053 17.927 16.2053 17.2136 16.6956C16.4747 17.2019 16.4059 18.0604 17.1037 18.6161C17.8287 19.1914 19.0543 19.1914 19.7937 18.6161C20.5094 18.0604 20.4644 17.2014 19.7405 16.6956ZM14.2784 15.0928C13.3436 15.0928 12.47 15.6129 12.3197 16.2839C12.1631 16.9846 12.8533 17.5796 13.8703 17.5796C14.8872 17.5796 15.7729 16.9846 15.8457 16.2839C15.9145 15.6134 15.2127 15.0928 14.2784 15.0928ZM13.8859 14.2189C14.5935 13.8061 14.6952 13.1633 14.1501 12.7814C13.6199 12.4111 12.6521 12.4111 11.9544 12.7814C11.2369 13.1633 11.049 13.8061 11.5687 14.2189C12.1047 14.6444 13.1574 14.6444 13.8859 14.2189ZM14.7785 12.0424C15.6104 12.0424 16.329 11.6418 16.3776 11.1658C16.4261 10.7063 15.8336 10.3472 15.0566 10.3472C14.2784 10.3472 13.5691 10.7063 13.4667 11.1658C13.3598 11.6418 13.9448 12.0424 14.7785 12.0424Z" fill="#333333"/>
</svg>
