<svg width="16" height="16" viewBox="0 0 16 16" fill="none" xmlns="http://www.w3.org/2000/svg">
<path fill-rule="evenodd" clip-rule="evenodd" d="M1.88498 0.511039C2.05996 0.336328 2.27006 0.200798 2.50138 0.113429C2.7327 0.026061 2.97994 -0.01115 3.22672 0.0042622C3.47351 0.0196744 3.7142 0.0873579 3.93285 0.202827C4.15149 0.318297 4.34311 0.478915 4.49498 0.674039L6.28998 2.98004C6.61898 3.40304 6.73498 3.95404 6.60498 4.47404L6.05798 6.66404C6.0297 6.77747 6.03123 6.89628 6.06242 7.00895C6.09361 7.12161 6.1534 7.2243 6.23598 7.30704L8.69298 9.76404C8.77582 9.84679 8.87868 9.90668 8.99153 9.93788C9.10439 9.96907 9.22341 9.9705 9.33698 9.94204L11.526 9.39504C11.7826 9.33088 12.0504 9.32589 12.3093 9.38047C12.5681 9.43504 12.8111 9.54773 13.02 9.71004L15.326 11.504C16.155 12.149 16.231 13.374 15.489 14.115L14.455 15.149C13.715 15.889 12.609 16.214 11.578 15.851C8.93917 14.9226 6.54326 13.4119 4.56798 11.431C2.58727 9.45605 1.07659 7.0605 0.147983 4.42204C-0.214017 3.39204 0.110983 2.28504 0.850983 1.54504L1.88498 0.511039ZM15.854 0.146039C15.9005 0.192485 15.9375 0.247661 15.9627 0.308406C15.9879 0.369151 16.0009 0.434272 16.0009 0.500039C16.0009 0.565807 15.9879 0.630928 15.9627 0.691673C15.9375 0.752418 15.9005 0.807594 15.854 0.854039L11.707 5.00004H14.5C14.6326 5.00004 14.7598 5.05272 14.8535 5.14649C14.9473 5.24025 15 5.36743 15 5.50004C15 5.63265 14.9473 5.75982 14.8535 5.85359C14.7598 5.94736 14.6326 6.00004 14.5 6.00004H10.5C10.3674 6.00004 10.2402 5.94736 10.1464 5.85359C10.0527 5.75982 9.99998 5.63265 9.99998 5.50004V1.50004C9.99998 1.36743 10.0527 1.24025 10.1464 1.14649C10.2402 1.05272 10.3674 1.00004 10.5 1.00004C10.6326 1.00004 10.7598 1.05272 10.8535 1.14649C10.9473 1.24025 11 1.36743 11 1.50004V4.29304L15.146 0.146039C15.1924 0.0994761 15.2476 0.0625332 15.3083 0.0373268C15.3691 0.0121203 15.4342 -0.000854492 15.5 -0.000854492C15.5658 -0.000854492 15.6309 0.0121203 15.6916 0.0373268C15.7524 0.0625332 15.8075 0.0994761 15.854 0.146039V0.146039Z" fill="#BA9006"/>
</svg>
