<svg width="62" height="62" viewBox="0 0 62 62" fill="none" xmlns="http://www.w3.org/2000/svg">
<path d="M38.1043 42.6252H41.9793V38.7502H43.9168C44.6487 38.7502 45.2618 38.5022 45.7561 38.0062C46.2521 37.5119 46.5001 36.8988 46.5001 36.1668V25.8335C46.5001 25.1016 46.2521 24.4876 45.7561 23.9916C45.2618 23.4973 44.6487 23.2502 43.9168 23.2502H36.1667C35.4348 23.2502 34.8217 23.4973 34.3274 23.9916C33.8314 24.4876 33.5834 25.1016 33.5834 25.8335V36.1668C33.5834 36.8988 33.8314 37.5119 34.3274 38.0062C34.8217 38.5022 35.4348 38.7502 36.1667 38.7502H38.1043V42.6252ZM15.5001 38.7502H19.3751V33.5835H24.5417V38.7502H28.4167V23.2502H24.5417V29.7085H19.3751V23.2502H15.5001V38.7502ZM37.4584 34.8752V27.1252H42.6251V34.8752H37.4584ZM10.3334 51.6668C8.91258 51.6668 7.69669 51.1614 6.68575 50.1504C5.67308 49.1377 5.16675 47.921 5.16675 46.5002V15.5002C5.16675 14.0793 5.67308 12.8634 6.68575 11.8525C7.69669 10.8398 8.91258 10.3335 10.3334 10.3335H51.6668C53.0876 10.3335 54.3043 10.8398 55.317 11.8525C56.3279 12.8634 56.8334 14.0793 56.8334 15.5002V46.5002C56.8334 47.921 56.3279 49.1377 55.317 50.1504C54.3043 51.1614 53.0876 51.6668 51.6668 51.6668H10.3334Z" fill="#FFC700"/>
</svg>
