<svg width="63" height="61" viewBox="0 0 63 61" fill="none" xmlns="http://www.w3.org/2000/svg">
<path d="M4.81938 19.2506H1.93188V29.341H9.33963V26.8883H4.81938V19.2506ZM44.8349 25.2718H49.5441V23.2562H44.8349V21.6398H50.0508V19.248H41.9736V29.3385H50.1269V26.9595H44.8218V25.2693L44.8349 25.2718ZM13.138 25.2718H17.8499V23.2562H13.138V21.6398H18.367V19.248H10.2899V29.3385H18.4431V26.9595H13.138V25.2718ZM58.5873 25.8233C59.8788 25.2947 60.7266 24.2653 60.7266 22.7225V22.6971C60.7266 21.7033 60.4116 20.9179 59.8026 20.341C59.107 19.6547 58.0045 19.248 56.4085 19.248H51.4814V29.341H54.3689V26.2885H55.6368L57.7368 29.341H61.0705L58.5873 25.8233ZM57.826 22.8928C57.826 23.6299 57.2564 24.0925 56.2825 24.0925H54.382V21.6779H56.2694C57.2328 21.6779 57.826 22.0845 57.826 22.8801V22.8928ZM34.9071 19.2506H30.8909V29.341H34.8546C38.6031 29.341 40.795 27.1831 40.795 24.2653V24.2399C40.7819 21.322 38.6294 19.2506 34.9071 19.2506V19.2506ZM37.8209 24.3136C37.8209 25.9453 36.6659 26.8654 34.9439 26.8654H33.7679V21.7389H34.9439C36.6659 21.7389 37.8183 22.6717 37.8183 24.2907L37.8209 24.3136ZM30.8016 0L14.4295 15.8549H47.1764L30.8016 0ZM23.2416 19.2506L18.8316 29.341H21.8478L22.5828 27.5517H26.5728L27.3314 29.341H30.4079L26.0005 19.2506H23.2416ZM23.4306 25.3938L24.5961 22.4505L25.7485 25.3938H23.4306ZM21.3805 38.7325H22.6458L24.7458 41.7875H28.0795L25.5963 38.2673C26.8878 37.7412 27.7356 36.7093 27.7356 35.1665V35.1411C27.7356 34.1498 27.4206 33.3619 26.8116 32.7875C26.116 32.1013 25.0135 31.6946 23.4175 31.6946H18.4956V41.7748H21.3831L21.3805 38.7325ZM21.3805 34.1244H23.2653C24.2286 34.1244 24.8245 34.5285 24.8245 35.3241V35.3495C24.8245 36.0866 24.2549 36.5517 23.2784 36.5517H21.3805V34.1244ZM17.338 35.2758V35.2504C17.338 33.0188 15.6423 31.7073 13.0068 31.7073H8.54426V41.7875H11.4318V38.9053H12.8624C15.4454 38.9053 17.3459 37.6548 17.3459 35.2758H17.338ZM14.4505 35.3978C14.4505 36.1959 13.831 36.7093 12.8073 36.7093H11.4265V34.0507H12.781C13.8205 34.0507 14.4531 34.5158 14.4531 35.3724L14.4505 35.3978ZM32.269 31.6946H29.3736V41.7748H32.2716L32.269 31.6946ZM39.1833 42.0925C41.0076 42.0925 42.7034 41.2233 43.7429 39.7644L43.8059 39.678L41.4644 38.1199L41.3988 38.2063C41.0761 38.6632 40.611 39.0081 40.0714 39.1906C39.5317 39.3731 38.946 39.3836 38.3997 39.2205C37.8535 39.0575 37.3755 38.7295 37.0357 38.2845C36.6958 37.8395 36.512 37.3009 36.511 36.7474C36.5117 36.4068 36.5817 36.0696 36.7171 35.7551C36.8524 35.4407 37.0505 35.1551 37.2999 34.9148C37.5493 34.6745 37.8451 34.4842 38.1705 34.3547C38.496 34.2251 38.8445 34.159 39.1964 34.16C40.0836 34.16 40.9053 34.5768 41.4014 35.2885L41.4644 35.3749L43.8059 33.8169L43.7429 33.7305C43.2347 33.0144 42.5538 32.429 41.7593 32.0251C40.9648 31.6212 40.0806 31.4109 39.1833 31.4125C37.7198 31.4158 36.3173 31.9804 35.2827 32.9826C34.2481 33.9848 33.6657 35.3431 33.6629 36.7601C33.6629 39.6907 36.1304 42.0925 39.1833 42.0925ZM47.8326 39.4085V37.7158H52.8359V35.7053H47.8326V34.0863H53.353V31.7073H44.9714V41.7875H53.4186V39.4085H47.8326ZM30.8043 61L47.1764 45.1451H14.4295L30.8043 61Z" fill="#FFC700"/>
</svg>
