<svg width="43" height="38" viewBox="0 0 43 38" fill="none" xmlns="http://www.w3.org/2000/svg">
<path d="M21.5 0C17.2477 0 13.0909 1.11433 9.55525 3.20208C6.01959 5.28982 3.26388 8.25722 1.6366 11.729C0.00931561 15.2008 -0.416456 19.0211 0.413126 22.7067C1.24271 26.3923 3.29038 29.7778 6.29721 32.435C9.30404 35.0922 13.135 36.9018 17.3056 37.6349C21.4762 38.368 25.7991 37.9918 29.7277 36.5537C33.6563 35.1156 37.0142 32.6804 39.3766 29.5558C41.7391 26.4313 43 22.7578 43 19C43 16.5049 42.4439 14.0342 41.3634 11.729C40.2829 9.42383 38.6993 7.32928 36.7028 5.56497C34.7063 3.80066 32.3362 2.40113 29.7277 1.44629C27.1192 0.491449 24.3234 0 21.5 0ZM28.337 28.7888C28.2568 28.9663 28.1345 29.1266 27.9783 29.2588C27.8222 29.3911 27.6358 29.4923 27.4318 29.5557C27.2277 29.619 27.0107 29.6431 26.7952 29.6261C26.5798 29.6092 26.3709 29.5518 26.1827 29.4576L20.3455 25.4486L16.6002 28.5038C16.5132 28.5605 16.4116 28.597 16.3045 28.61C16.1974 28.6229 16.0884 28.6119 15.9874 28.5779L16.7055 22.8988L16.727 22.9159L16.7421 22.8038C16.7421 22.8038 27.2448 14.3526 27.6727 13.9935C28.107 13.6344 27.9629 13.5565 27.9629 13.5565C27.9887 13.1195 27.1868 13.5565 27.1868 13.5565L13.2698 21.4681L7.47556 19.7239C7.47556 19.7239 6.58546 19.4427 6.50161 18.8214C6.41346 18.2058 7.50351 17.8714 7.50351 17.8714L30.5451 9.7812C30.5451 9.7812 32.4392 9.0364 32.4392 10.2714L28.337 28.7888Z" fill="#383838"/>
</svg>
